<mxfile host="Electron" modified="2024-03-30T02:57:34.810Z" agent="Mozilla/5.0 (Windows NT 10.0; Win64; x64) AppleWebKit/537.36 (KHTML, like Gecko) draw.io/22.1.16 Chrome/120.0.6099.109 Electron/28.1.0 Safari/537.36" etag="Uz6u-jM9ntHiXQy5Unyf" version="22.1.16" type="device">
  <diagram name="Page-1" id="6BWOSKZ8vL16KBLaEnRf">
    <mxGraphModel dx="1906" dy="192" grid="0" gridSize="10" guides="1" tooltips="1" connect="1" arrows="1" fold="1" page="0" pageScale="1" pageWidth="850" pageHeight="1100" math="0" shadow="0">
      <root>
        <mxCell id="0" />
        <mxCell id="1" parent="0" />
        <mxCell id="zf6_VQ0JbsXAk2qcLPLx-129" value="" style="rounded=0;whiteSpace=wrap;html=1;dashed=1;dashPattern=1 1;strokeColor=#4D4D4D;strokeWidth=1;" parent="1" vertex="1">
          <mxGeometry x="2580" y="1438.5" width="560" height="401" as="geometry" />
        </mxCell>
        <mxCell id="zf6_VQ0JbsXAk2qcLPLx-127" value="" style="rounded=0;whiteSpace=wrap;html=1;dashed=1;dashPattern=1 1;strokeColor=#4D4D4D;strokeWidth=1;" parent="1" vertex="1">
          <mxGeometry x="2040" y="1439" width="480" height="401" as="geometry" />
        </mxCell>
        <mxCell id="zf6_VQ0JbsXAk2qcLPLx-124" value="" style="rounded=0;whiteSpace=wrap;html=1;dashed=1;strokeColor=#4D4D4D;strokeWidth=1;dashPattern=1 1;" parent="1" vertex="1">
          <mxGeometry x="1440" y="1439" width="540" height="400" as="geometry" />
        </mxCell>
        <mxCell id="zf6_VQ0JbsXAk2qcLPLx-72" value="" style="shape=image;aspect=fixed;image=data:image/png,iVBORw0KGgoAAAANSUhEUgAAANsAAADwCAYAAACJ6BG1AAAABGdBTUEAALGPC/xhBQAAACBjSFJNAAB6JgAAgIQAAPoAAACA6AAAdTAAAOpgAAA6mAAAF3CculE8AAAABmJLR0QA/wD/AP+gvaeTAAAme0lEQVR42u2deZgcVbn/v++p6n0yk0wSZFgiIBHIgBET0SAXEwhLgLgn7HjVK2FRLiiyXk1zwSUEiMrvouhluaKixOUCYsBAMiaThGByRTABREDMChMgmUxm6a467++PmZ7pnq6urq6u7q6uPu/z5ElPL9Wnus+n33M+VfUegoqKxsnfenJ8RPABJsxJYNFG4IkSGEeSxzHxWGKMY2AcgLHMDAAxAFEAAPMYBvTBLbEBxt6RLTOYsRtAD4O7wehmoFuA90hgN4G6JHinAG0nyJ0meHtH8pO71TdSuyD1EZQZzDR30ZMHm0RHmOAjiOlIwDyCQO9mxkEMjmXxMQjJyGuRe5Ozt5v1Fw8/xHl/5zyQgRA5d3LmedQP8DYwXmXgZTD/nYCXCcbLb+p4bVNyfkp9oQo2X0QymRQboiceYwpzGoM+QIxpAI4BOJEHDGeBUQy0UX/ngjby2GjQhrdXFDRH7TCZ8QqINzCwgUms6Lz5U39R37qCrWox57YnpwimUyVjFgH/AmAcj+rwVqDlZx0e9RK2Bi0HmNJAqwDw2wE8AhY/Xf3tT60FiFWPULB5GnNvfeoDpqCzwfgEwO/NGd0VBM1q2GYFlheg2bWjYsD/ncF36hG6tyM5v0f1EgWb65h3x9pYr+y/EIwvAphu/etfImijgRk1L2PmUdO/3A6fk5mqBvyoduQD/w4xbuuNxb+7MTm3V/UcBZvzLJZ8NM5jEpcw09cA3j+3X48SESWDNnq4Vxg0KyHic+C3MdN1axed/VOFkYKtaJy5eMWZEOIuME/yzvih+PzIgXn0HfCF2sH4vQFjwfpbL9iqcFKwWQ4Z+8zUD5n4IjciogzjVyXFj8q2Ix/4XWA6f+3ic/6gkCocotF2eM6ilQf18cAaZ6DB0vi5Bg12HRwFOzgcgwZnoKFM4PMdzgSQXHb8tT+/RiGlMhsA4JOL1+yXFqk/MuNIZ6AVMX4FRIS3it+ZefTLMT0Ad65N/O1KJJNS4dWgmW3u3RviaS29PAc0uOngsAUNjkCDd6BZpkW2TMaWwMNpO5xleAZ/eUbP5O8ptBoYNtmz9/uQ/D4UFABOQSswP8rrlFyALAvjFzTggS99+OqfLVR4NeAw8szbO2YR84oyBIBzEVEJ41eBdlThmB5Lxvz1t1/wK4VZo2Q2ZiLmJWUKAOfGD1wooRUUEfagoSLAVyHDEwH3fOhrP5usMBsMPfhZbeWpDJrqgfHrB+MFBm0bHBHwQWBMATjkpfGzGprVJfCDdzQT848BnqXOq2wA2EB06cgBWBcCgOVzIHw7TP2PPXLdx/dmb3pmcuXYcDj1cQLfwMzvdW78UJbx80bxo7LA8/DzPnrcVQ98/pkluEfN2QIcpy5+IhGi8FsAIi4EgMHgq2f0r70zWURjT7t7Q6h1167rCJxkQNRO8dsIkTIUf+ntGH2oQW4XHDt83ZL5fSqzBXbnQrMBRFwYvxQzffyJ6095/AkH77NxwfQ0gJtPuWXZiwA/CECzHsZVWvHbHNODU+Dh6GqC0g410AGS+hcA+K4SJEHdOcJH3AgAAr70xPWzHy/1/Zb/x5ylAG7w1vjBzvg5AM0L4C0+t9KBvwJgUrAFVUSCppcqAAi8fNl1p/zY7Xsuv3HOYhDWV8n4lX5MrwKX7TgE/tDjrnxgloItsLTxUSULAKJvlClkmICbqmj8CoAF+A54wecq2AIYM5MrowDe5VQADN3+x7JrT3m63PdumdzzBwC7qmb8UHPFb9uOrNunK9gCGIkW84DB6VdJAuAJL9576fz5JoAVpRq//A4OZ6AhP7NUXfHD0WU7B33oivsmK9gCFqaBppIFAPHrnjVAytcLiwhUwPjl6YscGPwCvEn0PgVbwIKEFi9ZAEjs8Wy6KPCOl8bPmYgo5ZhebYAnyKMUbEELKeOlCgAJTPQMdqb98julGxFRSqEeWL/OT8ATDm5U2AJ7UJuY4wCVJAAI9B7PMhv48LyO6+os/nIVf+WAhyvgqVlltuCNI+OlCwA+fd5DD2nlvvWMOx6KATipmlcTFAQNXDHgSzrUMLKdMQq2oLEGKVwIgIndrzafVe57x3qiZ4MRz++tdsA7FBEOC/WM/rsWlw9ZvQ5goWALWJhuBYDEN2cmV7oeXs+446EYMd2U08WDVjDIQ+AVbIGhzZUAaA+HBxa7fdt4d+z/AZiUv9laKX6fVQhTsAU1XAoA5itP/eay60t5p2QyKU5OProIhM8Xnx8VBb56lblQC+AVbMHEzb0A+NYptzz289O++Xhbsfc46ZbH3r1aTHsYhGtciwhPjZ8TIYL8dlSxYFAjhq5AsxMAdK5kOfeUWx67F5J+k5ax9R3JWf3A4BoBvSQ+AvCnIeVnwYOrhdbU+MEpaLWtEKZgC/hQsgwB0ATGFUx8ha71YvbNv3sLDNEHjMtUSvR3waDKVAhzC7yUCrYGAc0TATC+KsYPzoxffVYIU3O2gIVZQwHggfFjHyh+l8A7OplAwRbM5KZKhFcX+KIVwhRsAQetigJArQlgD7yCLZCs+bpicH0C70mFMAVbwD2JKhHuCfBlVghTsDUSaKpEOPxUMEjB1iigqRLhtQFewRawMGsnAIqXCHcKfAALBkkFWwBD1lAA1GOJ8GoBLxVsAR5FVlUA1HmJ8OoBr2ALYl5rFOPHvge+0SOw50a2pPf+pjcSby11UayRWnbZL6RCT3IRbl6szWbgodoAD28LBinYghdLk/NTAFJB2JePXPuLnjyAAlAwSA0jVfh+JlrhEuF54BWabZUDvIJNRT0oH4sODmegwQ40VO1qAgWbiroAzd9rAji9XlDBpsLvuAViTYDGPc5WM0Ey5/u/b5a90YN1DYeYzHEwNxONrEU9cu2nmX+XVdhdb2+ajg6lmpA2x1xN20ZIi1ujt2WOfnHBHZKjITvatwWD4P5QQ9523vjKRQBFvft1oh4Q98KUWxEx/kbj7+wOPGwzkyv1MU34MLOcLQnTmPEB6scBmmAw84hY56xfXcrcQVm1+F0KACKLCX++ACBbETHUDnIvIgi57WAqICJqXCLcdTtKAN4aDnEbwBO963lD+yAEkA6Dd351CxgdAJ5C1HyYxn13dyBgSyaT4pmmmScT80UAnyUZYxk02On8eo6fKhFeHeBrFweDcCGACzEg+njHVb+CoNvpXXf8pS5hO3XxE4kQwl/8k6CriHmS/TAFlTvHr6YCQAHvbwnJABADcCEkn887/v0hSO0aOvCOLXUhSKbdvSE097aOq0IU/gcIS1AUtMZeFNDXJcIrdfmQLyDjTNXr4bErQOdAmM/zjis+53vYzry9Y1ZbT89fJPgOABNqPR+oi0UBG61gkD+y2VCbeNQ+MsBoAeNe3n7Fj5kvDvluGDnt7g2htp69NwL4Ojh7KaDazQfqZ1HAEoCv+4JBfgIN+bDl7Cf/G3ZEDubX/vUTdOj9/b7IbKctWdXW1tOzBqCFYBZ+EQB+AF4VDGIfQcaD7SkIGo88b+Sx0xBuephf/nKk5rCdsWTl+0MsnwHwQSUAihu/gu3waYlwL4H3Vzbj3O/BCkDOfB58KmLyxzWF7YwlK98vJD0FxkFKADgDvj5LhHsAvH8kSH6ms5635WY54gt522WX1QS2j93+x2OFpBUAWj0VAPVq/IJeIrzuFH9RCWKR6XgUaHmZ7g5+/fL2qsJ22pJVbZL4EQDj/GP8VIlwX1YI89WwsRhMBeAcGU5GoJn3Ms/TqgLbvDvWxsJSPjI4dKz0fKAU46dKhNcGeD+ZR9cSxALA7GFmzmPHYdv4f6sKbP2cup2B6YWGKeypAFDGr2zga1YhrO4kSPF52/B7yJv5lYtbKgrbmUtWzmbgkvo3fhUQAAEtEe5/xe+hBMkfNloMJxkAJiIsr6wYbHPv3hAnSfcCICUAagQ8lOKvggTJz4rWGfPKcrKbLWzcs/caAAcrAVDmoYZygOc6AL7+JYiTeRsAjIVufM5z2M6646kDAfqaMn7FgA9gifBSgA+OBLEA0OIxoi9UILOJrwGIK+PXiCXC/aT4y5EgLuZtheZ/I48dzVs+9yHPYDvtjrWtYPqCMn4NXiK8porfCwmCUiWIg3kbA9JddrOELcSpBWBuUgLAa+NXRyXCa2oeaylBikEOAOa5/OZlTd4MI5k/qwRAPQGPil0+VFvQaiJB7Od/gwVymtDfc2bZsJ21uGMGA0coAVBPwFewRHhVQZP+kCBOhqws5pQNG5M816v5gFoUsAbAw0vgKwEUFa5IyKz7RIIUGbICAJ/OnBRlwQbQHK/mA2pRwABVCPNumGhXu3FM5SVIifO2QvM/lu/Cllc+4Bq2M5c8eRiAw5UA8Ivx80mFMG8zW48lgtsvjgNZma1iEsSJ6YQzyFme4Ro2ltopSgDUY8Gg+lH8xLTV8gEzMc5fEsRiO5zXntNdw0ZSntDoAiCQBYN8pPgl5EuWD+g82XcSpOj8D9N5y7yY2znbhxpaAPikYBD7uUR4ubDp4gXrqZw80ocSpNiQNQQZ/kDJsM29beUEgA6vfwFQX4sC+rZCWGXi7ecn7NhUYIB5lP8kiIN5mymPd7rz+siHLWcwiOpfANSx8Qt6iXDCH5FMFlgnSP5LgV8EGwCLDQ1ttmP1w1Y0m1k8lzCjZNgkaIYqEV56Ozwzfg1QIpyA/7UcQW69fDyAqa5gKgSB5WtcwFQc8o+UPIxkYIYqEd7gFcIqG33CoIetKaTZAAt/SpCicmY/fv28wxzDlkwmhQBPbzQBoCqEVfVymaUbf7RgT4HHzvaxBCkOuWHOcAzbuuaPHsaMpoYSAKpCWDVBY8m8uPAQks/wtQQpBjnxsY7nbJrJ7Q0lACpeIry+KoRVYa722+d+eOlfC/zcnw9GxNcSxG7+N/jYMc4FydCTVYlwVSK8AjHAEtdZZrUNF4fAuLIOJIj9ezOOdjyMZEa7KhGuSoRXZPxIfOuzd1/ysuWDbdoFAB9aBxLE/r2JD+AXPjnemY0kPkaVCPcf8HVfIpywwegaf4slhJvmhQG6oW4kSLGTl6N60ewm5iUfCoPx3qALAFUivOppbY9m0Dmbls5PWT46br+rwXx43UiQ4fsLnLdpmEUX39D74mPfDUZIlQhXJcI9jBQk5m380YJXLLPa9osnQcobvJcgZc7b7CVIsXYVz2yGSQcGWgCoEuHVBs1gwkXP3n3JckvQOCkgtXsATpQ2P3JyOUx2NismQUqY/3Gxy30YIDm5aGYjDZPAqkS4KhHujXkk5vOf/cGlvy74jG07bwQwu/yMUorSr4LpZD7IgfrngwAKngBQBYOqzBltB8v5f/7hpWsKmsmtl80C5EJHEJQKE5xkMy+HrKMfo6KwCYAOUiXCnbSjjoGvvHVcLlke+6wdaK9f3g7IXwGs1a0EsW9XE7/2ibG2mY0lJinjV6AdQagQVtl4G6Drn73r4h8DVPBNecslB4LM3wPcWucSxB5kiYMB7LbJbBivjF9AK4RVLt4BUxKRyHue/cGCH9mC9vqlh4FkB8CT6l6CFBvOsjyo2JwtERQBoEqEVxg0wjpi/CSsp36+/s4ruos9nbdc+j6QfBygtkBIELv5HxgwcWAx2OJgUiXCKw486q1EeB+Alxj0PJFcYUA+9de7Lt/i9MW8/eJPQMr7AbQERoIUhVy22MPGFFfGr2g7eiTwPBgvCOIXAdrGkHtZcg8ot+goUdYf6UxCGEkNI3dT7pNyn5j/d3rkjtHbo+xtlJ29eI8G9Pxpv643C5cwsIGMkzq27vwPSP46mEVl5kcOtuMoYzoE2Wm7hEjYCxIgrkqEW4BG+DOYHxXET/bv6X16448WpKHCHrRtlxyLbTvvBvEHAytB7EBmjhcfRtarAPAe+HcA/EQT8r7ORRf+ReHjeMg4ASYWgvmykfIGFYTJzbzN8yGrJbCJIrBBqBLheAuMJXJA3rn+zgu6FT4OIdt6+Xiw+WVIvhJkNTcLoASxaxdRscyGfmCQyJoKAC5NAHgEvEHM3w0lQjd1JOf3KHyczMlA2HrpiSD+HGB8BjT0a94wEsQGZJZN9rBJ7gMhUfMS4VU2fky8Xpq4eP1t5z+nECoC2GtXjoWeOgnEp2Abnw7iQyo/P/KpBLF7DybNXpAQDVjRHuAS4QzIO1Pv9FztRnpw1zVjkObJ0LgVkC2QEP5GxXT+mMlxEDWD0QzIiSA+EsCR4IFJAJO3GaVOJYhduwi99pmNuDf3KH2AS4QTugX4gs5F5z/qfPJ/7SRoxukAzQbzh2GaB0NkmkX5ur62Ociik5BNZ6PczkYAIPPOS/dHTRC/SBCbLDt4bNIGNqZ++8KdgSkR/oaUdMbaxef+X/F5SVLHGz2fAfgLgHESGKLqJQXKgqyana3BJIj9/tlnNmLew8EvEf66yfKU9YvPf9kesnkadr77Iryx90YA76mTGZWfOlvwJYhdu6hIZmPCtpFtB7JEeBfBOG394gvtQXvjK1PxBv0IxMfVF2Q+6myNIEHstsPFMht4GyOoJcJ5rxA8p/M7F75kM2QUeLP7RjB9A1kLjQQym1W6szWCBLFtF9keo9WlxDYbfei94q9ewSBmSZ/tvPW8jQW77NvXtuDNvQ+CaU4diXj/drZGkCD29S23OMpsflT8bAd80RLhvGTdbef9tmCX3XJVK1LGMgDH1SdkPuxsjSFBCm+HjH/aZzbQNsraoJ8rBpcA/IaB3XuvK9htd3x5IkisAnCkkiBKgng2ZNWjxWCTW7Sh4y0BKRFuSqYFhQ5Y8/ZkHLT34foATUmQOpqX9tLkZV1236ZYceMZ/2Rgb1AqBhP4zqcXn1P4WBrtfQBwvjSrP7KZqwI0Fp3NSYEdoGip7WLtKnlBQxftQgllDFzX8i+hTIPkfxb7RgWImJhf8Ezx17Zg0O5+0pOFh49fuRyET9W3BPFpZ3NcE8SLWv4Oa4KUtGBHsR+YIhW8iF8tDhsASdjs0vgVUfwoQfF7UTCIv7dx0XzL1S35za9NBtFt/oesxp0NLjub49VhHLSr1GztyaqlsN9O0XZx0TOTdAAQTH9lyAosCljVEuF7OR36fsE9lfxdAFElQZQEqci8lOlPjmAzBTYL01pE1MuigAz+2bol89+27MY7v3LWyFKySoIoCeJaghRuly42OoJN59RfJfQaK34H5hE27QDuK7ybdH2gspkfO1uQzgQp/eD8NjpixTZHc7Y/3PjxrQzsquMS4S+su/X8Z6ylyNUzARyvJIiSIGVLkMLz0o1OvvGhlUeJAV5fryXCARS+Po3wBSVBKt7ZGkSCFDqUIp92DhsAAp6uieL3ZFFA+ZT1XO3qBMCf8Hc2C0JnKxdyuFsYo+KrlhZoV957m8ucfPvDZ7kTYx3XQvGXvyjgQCqxr9M6q/FpYDQpCaIkSAXnpTswZe1fSoKtNyqfifSTCYbmnXmsSonwlzYmF1hfR8Q8q/Z1C5QECfQVCozHiJxdxj88jFxz7cf3ArTZ1vj5sEQ4AS/YWMgTlQRREqSy81K5zGlvELmjLl5X3DzWWPHnA/+idVKbpwF4r5IgSoJUcF6axkD/U65gY0JnHZQIH9Wn+U3LPXvzkENQkzNGlATxRoKwzySIxSiCuIOmb9zjtGfklAFIh/THQ6m0ZM6vhcg+XRTQJFhfim7KA6tb0VFJkMabl/KDpfSQnO64+oYzuphpQ8Fhmw/XBBDMPQVMZFP1QVOXwzTOvBT9SIV/6xq2IYP4+3paFFCySBXYt4SSIEqCVGZeCgD0Ozq2Y3dZsEHgsdIVP0pQ/F4XDCpQXpuEpiSIkiDezkuzOaGfldpj8mDrSH5sIxg7alYivJRDDTWrUqwkSMNIEOs+9g5CTcvKhg0gBvCLqih+j64mqL7SD3pngwdDVoft8uW8tEA2G0aEHqDJywY8gA0Ai3tKVvw1KhhU3xLEr51NSRDbjmCaP3DTgyxhW3nzxzYxsLaKJcLh+piekiBKglRMglhlNTxJ71v3omewAYCQfLtz81h5xe/kUIOSIEqCeCpBrPvEf7ntTQVh+6j+3P8y8HJZ9UOquCaAkiBKgngsQazin9h04O88hy2ZTEoGJ8sqEe6p4rcBXkkQjzqby3kpezkvZX9IEOsx5CKav9T0HDYAWHXzpx4EBi/5rkCJcFeKv7IJrZGNWxnzUng5L4UfJIjVXO010Dv/XU7vKnL2IDFIXsWA9LhEuCvFbwW8kiBKgnguQSy7B91I7ZtSFYQN+OPN81aD+b9rrfiLXk2gJIiSIJ5JkLx4Du2dvyy3pzk6Lz5syGsAvJrvQ3yyJoCSIEqCeCdB8juJoK8SQVYFticXzd8jgLOZecAzxe/Z1QRmGdlMSRAlQYrGPTSl80kvftodX/HV8c3PbGDGpdna0S9rAlRFggSisykJUmK8iv7+q72yAiVdXtn57Xn3AXKhV/VDipvH4sf0TNegNVJnUxLERfRDiHmlXIntKWwAsPpbZ9/MzNd5VD8E3hQMUhJESRDPho0AwQT4Apqy+v/gYbgqHND5nbMXgXAlGGaOsCi1fognVxMoCaIkiGfZbBA0ps/T0Wt/DY/DdZWOzm/N/55gnARgh5P6IezWPBYrGGQUaqGpJIiSIKXGPgCfoqM7f4IKRFklcVYtOntVWpjHAvhZeYq//IJB1klNSZDKDFkDJUFGjqWxOJ7a1zyCCkXZ9afWf+u8N9Z855wLwHQSwKtqsSaAo2GkkiD27WpMCQIAewF8A7T7g3TM6udQwdC92tCaW89eCWDlCdf+/AQGvsiMT4IxptIFgxyD5nr1TDjMGqhOGTsv21WzVUu9KmNXVmwBcD9Coe/TER27UIXQvd5g56LzOgF0Tks+eml4356TAPooAycQ4wiAx5W/JsCoqwlsa/kHvbN5DXktavk72I67X9rR8RaAzQA6IMVTOGb1ai/OCqkpbJnYmJzbC+B3Q/8AAMdd/z/j9TS1sanFWTObMx6DLNRGth4aeYI5fFfmPylSzxYWJBSUzvYnSHmD/SdeoN8Q5X4mprWCG/nfsNlOoceybwy9geH2PQo8h/JuOBjYmN0g6oUhttH7Ot9BjUOv5ps98+3PvjX0C1P5MDFUu8ghTK4ySgGQ7eB0AzljF73noSehoq5DD/4u1ulSRJUxbioUbLUCrZ4kiAoFm99hC4QEUcAp2HwdJsCE+jZuCjIFWz0OI/0uQewhn8CvfHp28f01HFwGYbh8LOtHzID7bbB8i9pX/VnBFljYqilBKjJk/SBAy4sfnCcHBpZs9o8czEuRZd+t9o+KSZ5lAM5QsAV63uYzCVJSxgzSwXlCo0aDCRJ1Jkjt56WsYGsYQeJXCVKx43Z+npcq2IIrSPwtQeCPk5erMS9VsAUbNv9LkOLbcdMuX8xL1SGMxhAkSoIgAJfDKNjqFzQlQXx+OYyCrb78yOhrd5QEURJEwVadeZuSIEqCKNiqCZqSIEqCKNgqyFotOpuSICoaCjapJIi7/dsD8FYAb4N5IoBDAI4qCaJgczaMVBKkWLsMMO4F+AFMmbmWKDn8S8WvzYxiH04ByQUAzlTZTMFWoXlbQ0iQjRA4n45c+dLgYx05nx4d2tEP4FEAj/KmE08C+KcAtyl0Sg8ReNBsC6N6Ucu/EoVRvajl72T/8Bh6m04cAc0+qH3VCpjp4wB6QaGjYMsKs8Ra/qhSLX92166C2ayE8uq577EZoeh5NP3R3lI+VZq6fitMcSaAXQofBZvFMLLM1WEss4YTCJzA5MWCHXCwfzntYoAupMnLut18ojR11WsA36DwUbAVnh8FeXWYktaYk0tpyory1h7rCt8H4O8KIQUbwNJwlFEKwVRvq8OUMmRl8fNyP16a1WGA6JcuXmoo2IIWRN1KgljO/yT6upd79Iv2hIvBRnejwhbgE5HlnvzCNKjjM0EcKv3i7eqi6Rt7PfmMpfYPUGmrmkOQgi1wYeivImRAXQ6Tt523vRsXiXfAJcLG8h9qGBm0UeTk+7oA7mpcCVJw/yZ6N3ow9nMxjNykYAumJVnfsBKkcLvG84bZLR6Niw4rHVB+VsEWzHi8QSWI3XE7QrR3jjdzNi6t2CrR8/T+ddsUbIGct5mPYPBUkuzOhoCdCYLSD87TRWWPGV6bGQVhfmkv4sfQwBFo2OjwX2wB+Pf22cwlBL44E8TtkBVzePPxJ5b14fakvwTGgSXN1kzcr2AL9LQNd5afUeBTCQKUfnA+8xS6n184bryrj3TTjGNBuKm0Xz48SVPXvKRgC3J2O+zB5SC5osEkSPGrqBmHwgw9zJtmtJYE2vMfPgosHgYQL+knD/SfaPAQDbGXJK4G2GggCQKHiyh+BCzW83PHzyg+3QLxX48/B0JfB+DgEr+BX1F7Z2ejw9YwS4rwK2ffBMhvWGcaoA7PBMlvl/urqBnAb0H4H+yRy+n4dX1ZQ8ZWsJgLxiUgfNjFR/8WDDm1kS1k48G24eIQxr3TAfDxZUFQ9TNBqr4GtwHCG2C8BeBdQ//KmTN/mo5Z8xuoaKzFsvilcydAT68D+PCa1gRxXcbOKeS++cRvoaPXfl1h1oCwAQC/9ukjYfJKAPtXJqOowqhD8RO0r/lXIlUZqLEESfavy6G/fhEazQJ4e4NIkFrE/dh8wOcVaA2e2UaEybxJkOlHAEwtrYxd3UqQavWoxZiy5loFmoItF7hN85oQHrgHoPkNJkEqEfsA+iId3fmgwkrBVhi6l+d+AaDvAZyofS3/epMgAID1ENqFNGXVy6o3qTmb/S/O5EfvgWa0g/G7kk+HGj3PqvaZILWNvSC6Gl2hExRoKrO5yHJnzQXzIgBHqdVhCvYaE4wHoONGOnLNdtVrFGzugVs5U0db7CIQfRXgKUqCDEcaoF+Djf+kY55WVZEVbB6D99LpJwB0LcBngpkaVIK8CfB9IHEXtXf+U/UKBVtloXvhjGNAxiUAPgNgv8BLkMGh4mqA7kNkzC9p8rIB1QsUbNWFjpMCf+s8HpLmAXzOMHjFhob1cSaIBLAOTEuh0UM0ZfUO9Y0r2PwB3oZpIcRaT4SQJ4P5ZADTANbqTIK8AmAlCB0weDlNXfum+mYVbP6H788zxyIiZgHyZAAnAnwUGLrPJMjrADoAWgFCh5qDKdgClPmi7wVp08CYBvA0gKeDEakCaAaAvwHYBKbNIGyEoA1qaKhgaxwAV87UsX//QTC1Q0F8CJgOAfGhYDoQhBYwWgA0ARgDIJH/jdEeMEsAA2DsAmELiHeAaSsI2yFpG9h8HanUizR9Y1p94ipUOAGTQfzcCeN4w7S4+jRUqFChQoUKFSpUqFChQoUKFSpUqFChQoUKFSpUqFChQoUKFSpUqFChQoUKFSpUqFChQoUKFSpUqFBR56EuHq3x585ZRV1vuukmV9/HwoULcy75JsrZjFrgQsEWrM+RmYdh2bRpEwHAvHnzsHnz5pzPuK2tLefvHTt2WH4HU6YM1obduXNn3uP7778/b9682bIhbW1tPGr7bLFtXrp0KQCgvb2dASCZTLKCU8HmS5ja29tpNEAZcFpbW4cfe/vtt3M+4+bm5uG/u7u7yQIWy/sLRXNzM+/YsSPvvsztLVu2oKWlJQeg1tZWHmobZwOaDWYGyFEwKhAVbN5+JslkkoY6HGUyUzZQGZiyQcpA1N3dTdnA7Nu3jyZOnDi88Z6eHgKACRMmYN++fTmff29vr6vvIx6P50GQSCR4165dAICmpiYGgK6uruHHhtrG2XB2d3dzNpDZMGaDuGnTJm5vb+eFCxfy0JBVQahgc56xsrNVW1sbZWepDFTZQCUSiRyYMhDFYjHKBqe/v59aWlqG3zASiQzfnwVqzt9uIhqNcnd3d87fALBnz57h2wAwMDDA2YBmoMwGMpFIcCZjNjc3cwbC7IzY1tbGGzduxAEHHMDZWVBlQAVbXuaygmt0xmpubqYMWFZQZYDKBqilpQX9/f2UDdCYMWOGbw8MDAz/39TUhCwIaKjzl7Qz+/btywZ5uJOn02kefX/2falUijNQZgDMgJkBsa+vj5uamrgYgBn4MkNRBV9jw2YLWDG4srNVBqxIJEKjoQqFQpSBJvt2IpFAKpWieDyOVCpFAKDrOmV1fLIYGub8nUqlKBwO86hhZ85zsh83DIMz9/X29g4/tm/fvhz4RoOYSqU4Go1ydkYcGBjgeDzOiUSC+/v7eei98+AbnfkUeLmhBXyISEQkLrvsMtHV1SWmTp0qenp6RGtrq+jq6hIAKBQKiYGBAZFIJERPT4+YOHEiDQwMiObmZrFv3z4RiUQEM1M4HBbMLMLhsNA0Tei6LphZpNNpoeu6SKfT2tBzRTgc1ohIxGIxQUSalFIkEgmRTqc1IhK6rmtEJAzD0CKRiACgaZomsv9FIhFhGIbGzBoza0IIkbnNzJphGGL0awBo4XBYpFIpEQqFhKZpwjRNoWmaMAxDSClFPB4nTdMEM1M8HqeBgQGh6zoNDAyIUChEQ58JxWIxAYASiQQZhiH6+vrINE3q7e2lVColYrEY9fT00Lhx42joh0B0d3dT5kcmHA5TX18f6bpOsVgMAGjixIk0f/586ujoULAFJYYgo66uLtHV1SV0XRc9PT0iHA6Lvr4+0dfXR83NzdTa2ir6+/vF2LFjhRVgiURCGIYhhkCjaDQqDMMQuq6L/v5+EY/HKRaLCSmliMViwzBpmiaISAghRDQaFQC0oY4umFkzTVMLh8OCiLRQKCQAaEIIEY/HRTgcFuFwWJimqQmb0HVdi8ViIhwOCymlEEKISCRC6XRaRCIRGoJz+H9N00QsFqNUKiU0TSMApOs6De0PaZpGRCQy9/f29ooMOLFYjIaeIwCQYRikaRoZhkG6rlNLSwsREXp7e0nXdUqn08PQDf24UV9fHxmGQWPGjGlY6IIGGyWTSXHXXXeJ/fbbryBkQ7/mQtM0MTAwIDRNE+l0OtOJKRKJUDweF+l0WlgBFg6HhRBi+PWxWIwMwxChUEhEo1EhpRyGbaizi2g0KtLptBaLxYQQQpimqWWyVzQaFcyshUIhQUTDoEWjUREKhSz/MfMw1BnYdF0XUkqh67oAQBkApZQiEokQM5OUUmiaNnwbAGXgM02ThjIvaZpGpmlSNBol0zTJNE0Kh8Nobm5G5rmJRILS6TR1d3eTrus0YcIEjIauubkZu3fvRmtrK3RdR1tbGxo10/1/Bp2v0+GcJTgAAAAldEVYdGRhdGU6Y3JlYXRlADIwMjItMTEtMDdUMTc6MTQ6MzIrMDA6MDBcuWJHAAAAJXRFWHRkYXRlOm1vZGlmeQAyMDIyLTExLTA3VDE3OjE0OjMyKzAwOjAwLeTa+wAAAABJRU5ErkJggg==;" parent="1" vertex="1">
          <mxGeometry x="1310" y="1570" width="36.51" height="40" as="geometry" />
        </mxCell>
        <mxCell id="zf6_VQ0JbsXAk2qcLPLx-120" value="" style="edgeStyle=orthogonalEdgeStyle;rounded=0;orthogonalLoop=1;jettySize=auto;html=1;" parent="1" source="zf6_VQ0JbsXAk2qcLPLx-87" target="zf6_VQ0JbsXAk2qcLPLx-88" edge="1">
          <mxGeometry relative="1" as="geometry" />
        </mxCell>
        <mxCell id="zf6_VQ0JbsXAk2qcLPLx-87" value="AWS Glue Data Catalog" style="sketch=0;outlineConnect=0;fontColor=#232F3E;gradientColor=none;fillColor=#8C4FFF;strokeColor=none;dashed=0;verticalLabelPosition=bottom;verticalAlign=top;align=center;html=1;fontSize=12;fontStyle=0;aspect=fixed;pointerEvents=1;shape=mxgraph.aws4.glue_data_catalog;" parent="1" vertex="1">
          <mxGeometry x="2827" y="1599.9999999999998" width="72" height="78" as="geometry" />
        </mxCell>
        <mxCell id="zf6_VQ0JbsXAk2qcLPLx-88" value="Amazon Athena&lt;br&gt;Ad-hoc data query &lt;br&gt;using SQL" style="sketch=0;points=[[0,0,0],[0.25,0,0],[0.5,0,0],[0.75,0,0],[1,0,0],[0,1,0],[0.25,1,0],[0.5,1,0],[0.75,1,0],[1,1,0],[0,0.25,0],[0,0.5,0],[0,0.75,0],[1,0.25,0],[1,0.5,0],[1,0.75,0]];outlineConnect=0;fontColor=#232F3E;fillColor=#8C4FFF;strokeColor=#ffffff;dashed=0;verticalLabelPosition=bottom;verticalAlign=top;align=center;html=1;fontSize=12;fontStyle=0;aspect=fixed;shape=mxgraph.aws4.resourceIcon;resIcon=mxgraph.aws4.athena;" parent="1" vertex="1">
          <mxGeometry x="3024" y="1599.9999999999998" width="78" height="78" as="geometry" />
        </mxCell>
        <mxCell id="zf6_VQ0JbsXAk2qcLPLx-89" value="Amazon S3 &lt;br&gt;Event" style="sketch=0;outlineConnect=0;fontColor=#232F3E;gradientColor=none;fillColor=#E7157B;strokeColor=none;dashed=0;verticalLabelPosition=bottom;verticalAlign=top;align=center;html=1;fontSize=12;fontStyle=0;aspect=fixed;pointerEvents=1;shape=mxgraph.aws4.eventbridge_saas_partner_event_bus_resource;" parent="1" vertex="1">
          <mxGeometry x="2070" y="1560" width="40" height="40" as="geometry" />
        </mxCell>
        <mxCell id="zf6_VQ0JbsXAk2qcLPLx-85" value="Amazon S3 Bucket&lt;br&gt;Raw_Data folder&lt;br&gt;JSON files" style="sketch=0;points=[[0,0,0],[0.25,0,0],[0.5,0,0],[0.75,0,0],[1,0,0],[0,1,0],[0.25,1,0],[0.5,1,0],[0.75,1,0],[1,1,0],[0,0.25,0],[0,0.5,0],[0,0.75,0],[1,0.25,0],[1,0.5,0],[1,0.75,0]];outlineConnect=0;fontColor=#232F3E;fillColor=#7AA116;strokeColor=#ffffff;dashed=0;verticalLabelPosition=bottom;verticalAlign=top;align=center;html=1;fontSize=12;fontStyle=0;aspect=fixed;shape=mxgraph.aws4.resourceIcon;resIcon=mxgraph.aws4.s3;" parent="1" vertex="1">
          <mxGeometry x="1880" y="1599.9999999999998" width="78" height="78" as="geometry" />
        </mxCell>
        <mxCell id="zf6_VQ0JbsXAk2qcLPLx-97" value="AWS Lambda&lt;br&gt;Extract data" style="sketch=0;points=[[0,0,0],[0.25,0,0],[0.5,0,0],[0.75,0,0],[1,0,0],[0,1,0],[0.25,1,0],[0.5,1,0],[0.75,1,0],[1,1,0],[0,0.25,0],[0,0.5,0],[0,0.75,0],[1,0.25,0],[1,0.5,0],[1,0.75,0]];outlineConnect=0;fontColor=#232F3E;fillColor=#ED7100;strokeColor=#ffffff;dashed=0;verticalLabelPosition=bottom;verticalAlign=top;align=center;html=1;fontSize=12;fontStyle=0;aspect=fixed;shape=mxgraph.aws4.resourceIcon;resIcon=mxgraph.aws4.lambda;" parent="1" vertex="1">
          <mxGeometry x="1680" y="1599.9999999999998" width="78" height="78" as="geometry" />
        </mxCell>
        <mxCell id="zf6_VQ0JbsXAk2qcLPLx-119" value="" style="edgeStyle=orthogonalEdgeStyle;rounded=0;orthogonalLoop=1;jettySize=auto;html=1;" parent="1" source="zf6_VQ0JbsXAk2qcLPLx-77" target="zf6_VQ0JbsXAk2qcLPLx-87" edge="1">
          <mxGeometry relative="1" as="geometry" />
        </mxCell>
        <mxCell id="zf6_VQ0JbsXAk2qcLPLx-77" value="AWS Glue Crawler&lt;br&gt;Create schema from &lt;br&gt;transformed data" style="sketch=0;outlineConnect=0;fontColor=#232F3E;gradientColor=none;fillColor=#8C4FFF;strokeColor=none;dashed=0;verticalLabelPosition=bottom;verticalAlign=top;align=center;html=1;fontSize=12;fontStyle=0;aspect=fixed;pointerEvents=1;shape=mxgraph.aws4.glue_crawlers;" parent="1" vertex="1">
          <mxGeometry x="2624" y="1599.9999999999998" width="78" height="78" as="geometry" />
        </mxCell>
        <mxCell id="zf6_VQ0JbsXAk2qcLPLx-98" value="AWS Lambda&lt;br&gt;Transform data" style="sketch=0;points=[[0,0,0],[0.25,0,0],[0.5,0,0],[0.75,0,0],[1,0,0],[0,1,0],[0.25,1,0],[0.5,1,0],[0.75,1,0],[1,1,0],[0,0.25,0],[0,0.5,0],[0,0.75,0],[1,0.25,0],[1,0.5,0],[1,0.75,0]];outlineConnect=0;fontColor=#232F3E;fillColor=#ED7100;strokeColor=#ffffff;dashed=0;verticalLabelPosition=bottom;verticalAlign=top;align=center;html=1;fontSize=12;fontStyle=0;aspect=fixed;shape=mxgraph.aws4.resourceIcon;resIcon=mxgraph.aws4.lambda;" parent="1" vertex="1">
          <mxGeometry x="2160" y="1599.9999999999998" width="78" height="78" as="geometry" />
        </mxCell>
        <mxCell id="zf6_VQ0JbsXAk2qcLPLx-118" style="edgeStyle=orthogonalEdgeStyle;rounded=0;orthogonalLoop=1;jettySize=auto;html=1;exitX=1;exitY=0.5;exitDx=0;exitDy=0;exitPerimeter=0;" parent="1" source="zf6_VQ0JbsXAk2qcLPLx-99" target="zf6_VQ0JbsXAk2qcLPLx-77" edge="1">
          <mxGeometry relative="1" as="geometry" />
        </mxCell>
        <mxCell id="zf6_VQ0JbsXAk2qcLPLx-99" value="Amazon S3 Bucket&lt;br&gt;Transformed_Data folder&lt;br&gt;CSV files" style="sketch=0;points=[[0,0,0],[0.25,0,0],[0.5,0,0],[0.75,0,0],[1,0,0],[0,1,0],[0.25,1,0],[0.5,1,0],[0.75,1,0],[1,1,0],[0,0.25,0],[0,0.5,0],[0,0.75,0],[1,0.25,0],[1,0.5,0],[1,0.75,0]];outlineConnect=0;fontColor=#232F3E;fillColor=#7AA116;strokeColor=#ffffff;dashed=0;verticalLabelPosition=bottom;verticalAlign=top;align=center;html=1;fontSize=12;fontStyle=0;aspect=fixed;shape=mxgraph.aws4.resourceIcon;resIcon=mxgraph.aws4.s3;" parent="1" vertex="1">
          <mxGeometry x="2360" y="1599.9999999999998" width="78" height="78" as="geometry" />
        </mxCell>
        <mxCell id="zf6_VQ0JbsXAk2qcLPLx-107" value="Event &lt;br&gt;(daily trigger)" style="sketch=0;outlineConnect=0;fontColor=#232F3E;gradientColor=none;fillColor=#E7157B;strokeColor=none;dashed=0;verticalLabelPosition=bottom;verticalAlign=top;align=center;html=1;fontSize=12;fontStyle=0;aspect=fixed;pointerEvents=1;shape=mxgraph.aws4.event_time_based;" parent="1" vertex="1">
          <mxGeometry x="1600" y="1560" width="40" height="40" as="geometry" />
        </mxCell>
        <mxCell id="zf6_VQ0JbsXAk2qcLPLx-108" value="boto3" style="outlineConnect=0;dashed=0;verticalLabelPosition=bottom;verticalAlign=top;align=center;html=1;shape=mxgraph.aws3.android;fillColor=#FFD44F;gradientColor=none;" parent="1" vertex="1">
          <mxGeometry x="1360" y="1570" width="35" height="40" as="geometry" />
        </mxCell>
        <mxCell id="zf6_VQ0JbsXAk2qcLPLx-112" value="" style="shape=image;aspect=fixed;image=data:image/svg+xml,PHN2ZyBoZWlnaHQ9Ijc1MSIgd2lkdGg9IjI1MDAiIHhtbG5zPSJodHRwOi8vd3d3LnczLm9yZy8yMDAwL3N2ZyIgdmlld0JveD0iMC4yNTMgMC4yNzY5OTk5OTk5OTk5OTE3IDU1OC40MjY5OTk5OTk5OTk4IDE2Ny40ODMiPjxwYXRoIGQ9Ik04My45OTYuMjc3QzM3Ljc0Ny4yNzcuMjUzIDM3Ljc3LjI1MyA4NC4wMTljMCA0Ni4yNTEgMzcuNDk0IDgzLjc0MSA4My43NDMgODMuNzQxIDQ2LjI1NCAwIDgzLjc0NC0zNy40OSA4My43NDQtODMuNzQxIDAtNDYuMjQ2LTM3LjQ5LTgzLjczOC04My43NDUtODMuNzM4bC4wMDEtLjAwNHptMzguNDA0IDEyMC43OGE1LjIxNyA1LjIxNyAwIDAgMS03LjE4IDEuNzNjLTE5LjY2Mi0xMi4wMS00NC40MTQtMTQuNzMtNzMuNTY0LTguMDdhNS4yMjIgNS4yMjIgMCAwIDEtNi4yNDktMy45MyA1LjIxMyA1LjIxMyAwIDAgMSAzLjkyNi02LjI1YzMxLjktNy4yODggNTkuMjYzLTQuMTUgODEuMzM3IDkuMzQgMi40NiAxLjUxIDMuMjQgNC43MiAxLjczIDcuMTh6bTEwLjI1LTIyLjgwMmMtMS44OSAzLjA3Mi01LjkxIDQuMDQyLTguOTggMi4xNTItMjIuNTEtMTMuODM2LTU2LjgyMy0xNy44NDMtODMuNDQ4LTkuNzYxLTMuNDUzIDEuMDQzLTcuMS0uOTAzLTguMTQ4LTQuMzVhNi41MzggNi41MzggMCAwIDEgNC4zNTQtOC4xNDNjMzAuNDEzLTkuMjI4IDY4LjIyMi00Ljc1OCA5NC4wNzIgMTEuMTI3IDMuMDcgMS44OSA0LjA0IDUuOTEgMi4xNSA4Ljk3NnptLjg4LTIzLjc0NGMtMjYuOTktMTYuMDMxLTcxLjUyLTE3LjUwNS05Ny4yODktOS42ODQtNC4xMzggMS4yNTUtOC41MTQtMS4wODEtOS43NjgtNS4yMTlhNy44MzUgNy44MzUgMCAwIDEgNS4yMjEtOS43NzFjMjkuNTgxLTguOTggNzguNzU2LTcuMjQ1IDEwOS44MyAxMS4yMDJhNy44MjMgNy44MjMgMCAwIDEgMi43NCAxMC43MzNjLTIuMiAzLjcyMi03LjAyIDQuOTQ5LTEwLjczIDIuNzM5em05NC41NiAzLjA3MmMtMTQuNDYtMy40NDgtMTcuMDMtNS44NjgtMTcuMDMtMTAuOTUzIDAtNC44MDQgNC41Mi04LjAzNyAxMS4yNS04LjAzNyA2LjUyIDAgMTIuOTggMi40NTUgMTkuNzYgNy41MDkuMi4xNTMuNDYuMjE0LjcxLjE3NGEuOTMzLjkzMyAwIDAgMCAuNjMtLjM4Nmw3LjA2LTkuOTUyYS45NS45NSAwIDAgMC0uMTgtMS4yODhjLTguMDctNi40NzMtMTcuMTUtOS42Mi0yNy43Ny05LjYyLTE1LjYxIDAtMjYuNTIgOS4zNjktMjYuNTIgMjIuNzc0IDAgMTQuMzc1IDkuNDEgMTkuNDY1IDI1LjY3IDIzLjM5NCAxMy44MyAzLjE4NyAxNi4xNyA1Ljg1NyAxNi4xNyAxMC42MjkgMCA1LjI5LTQuNzIgOC41OC0xMi4zMiA4LjU4LTguNDQgMC0xNS4zMy0yLjg1LTIzLjAzLTkuNTFhLjk4Ljk4IDAgMCAwLS42OS0uMjNjLS4yNi4wMi0uNDkuMTQtLjY1LjMzbC03LjkyIDkuNDJjLS4zMy40LS4yOS45OC4wOSAxLjMyIDguOTYgOCAxOS45OCAxMi4yMiAzMS44OCAxMi4yMiAxNi44MiAwIDI3LjY5LTkuMTkgMjcuNjktMjMuNDIuMDMtMTIuMDA3LTcuMTYtMTguNjU3LTI0Ljc3LTIyLjk0MXptNjIuODYtMTQuMjZjLTcuMjkgMC0xMy4yNyAyLjg3Mi0xOC4yMSA4Ljc1N3YtNi42MjRhLjk0NS45NDUgMCAwIDAtLjk0LS45NDloLTEyLjk1Yy0uNTIgMC0uOTQuNDI2LS45NC45NDl2NzMuNjAxYzAgLjUyLjQyLjk1Ljk0Ljk1aDEyLjk1Yy41MiAwIC45NC0uNDMuOTQtLjk1di0yMy4yM2M0Ljk0IDUuNTMgMTAuOTIgOC4yNCAxOC4yMSA4LjI0IDEzLjU1IDAgMjcuMjctMTAuNDMgMjcuMjctMzAuMzY5LjAyLTE5Ljk0My0xMy43LTMwLjM3Ni0yNy4yNi0zMC4zNzZ6bTEyLjIxIDMwLjM3NWMwIDEwLjE0OS02LjI1IDE3LjIzOS0xNS4yMSAxNy4yMzktOC44NSAwLTE1LjUzLTcuNDEtMTUuNTMtMTcuMjM5IDAtOS44MyA2LjY4LTE3LjIzOCAxNS41My0xNy4yMzggOC44MS0uMDAxIDE1LjIxIDcuMjQ3IDE1LjIxIDE3LjIzN3ptNTAuMjEtMzAuMzc1Yy0xNy40NSAwLTMxLjEyIDEzLjQzNi0zMS4xMiAzMC41OTIgMCAxNi45NzIgMTMuNTggMzAuMjYyIDMwLjkxIDMwLjI2MiAxNy41MSAwIDMxLjIyLTEzLjM5IDMxLjIyLTMwLjQ3OSAwLTE3LjAzMS0xMy42Mi0zMC4zNzMtMzEuMDEtMzAuMzczem0wIDQ3LjcxNGMtOS4yOCAwLTE2LjI4LTcuNDYtMTYuMjgtMTcuMzQ0IDAtOS45MjkgNi43Ni0xNy4xMzQgMTYuMDctMTcuMTM0IDkuMzQgMCAxNi4zOCA3LjQ1NyAxNi4zOCAxNy4zNTEgMCA5LjkyNy02LjggMTcuMTI3LTE2LjE3IDE3LjEyN3ptNjguMjctNDYuNTNoLTE0LjI1VjQ5Ljk0MWEuOTQ0Ljk0NCAwIDAgMC0uOTQtLjk0OEgzOTMuNWMtLjUyIDAtLjk1LjQyNi0uOTUuOTQ4djE0LjU2NmgtNi4yMmMtLjUyIDAtLjk0LjQyNi0uOTQuOTQ5djExLjEyN2MwIC41MjIuNDIuOTQ5Ljk0Ljk0OWg2LjIydjI4Ljc5NWMwIDExLjYzIDUuNzkgMTcuNTMgMTcuMjIgMTcuNTMgNC42NCAwIDguNDktLjk2IDEyLjEyLTMuMDIuMy0uMTYuNDgtLjQ4LjQ4LS44MnYtMTAuNmMwLS4zMi0uMTctLjYzLS40NS0uOGEuOTE4LjkxOCAwIDAgMC0uOTItLjA0Yy0yLjQ5IDEuMjUtNC45IDEuODMtNy42IDEuODMtNC4xNSAwLTYuMDEtMS44OS02LjAxLTYuMTF2LTI2Ljc2aDE0LjI1Yy41MiAwIC45NC0uNDI2Ljk0LS45NDlWNjUuNDYyYS45MTguOTE4IDAgMCAwLS45My0uOTQ5em00OS42NC4wNTd2LTEuNzg5YzAtNS4yNjMgMi4wMi03LjYxIDYuNTQtNy42MSAyLjcgMCA0Ljg3LjUzNiA3LjMgMS4zNDYuMy4wOTQuNjEuMDQ3Ljg1LS4xMzJhLjk0Ljk0IDAgMCAwIC4zOS0uNzd2LTEwLjkxYS45MzcuOTM3IDAgMCAwLS42Ny0uOTA5Yy0yLjU2LS43NjMtNS44NC0xLjU0Ni0xMC43Ni0xLjU0Ni0xMS45NSAwLTE4LjI4IDYuNzM0LTE4LjI4IDE5LjQ2N3YyLjc0aC02LjIyYy0uNTIgMC0uOTUuNDI2LS45NS45NDh2MTEuMTg0YzAgLjUyMi40My45NDkuOTUuOTQ5aDYuMjJ2NDQuNDA1YzAgLjUzLjQzLjk1Ljk1Ljk1aDEyLjk0Yy41MyAwIC45NS0uNDIuOTUtLjk1Vjc3LjUzNWgxMi4wOWwxOC41MiA0NC40MDJjLTIuMSA0LjY2LTQuMTcgNS41OS02Ljk5IDUuNTktMi4yOCAwLTQuNjktLjY4LTcuMTQtMi4wM2ExLjAzIDEuMDMgMCAwIDAtLjc1LS4wN2MtLjI1LjA5LS40Ni4yNy0uNTYuNTFsLTQuMzkgOS42M2MtLjIxLjQ2LS4wMy45OS40MSAxLjIzIDQuNTggMi40OCA4LjcxIDMuNTQgMTMuODIgMy41NCA5LjU2IDAgMTQuODUtNC40NiAxOS41LTE2LjQ0bDIyLjQ2LTU4LjAzN2EuOTI1LjkyNSAwIDAgMC0uMS0uODgxLjkyNC45MjQgMCAwIDAtLjc3LS40MTJoLTEzLjQ4Yy0uNDEgMC0uNzcuMjU3LS45LjYzNmwtMTMuODEgMzkuNDM0LTE1LjEyLTM5LjQ2YS45NDQuOTQ0IDAgMCAwLS44OC0uNjFoLTIyLjEyem0tMjguNzgtLjA1N2gtMTIuOTVjLS41MiAwLS45NS40MjYtLjk1Ljk0OXY1Ni40ODFjMCAuNTMuNDMuOTUuOTUuOTVoMTIuOTVjLjUyIDAgLjk1LS40Mi45NS0uOTVWNjUuNDZhLjk0Ny45NDcgMCAwIDAtLjk1LS45NDl6bS02LjQtMjUuNzE5Yy01LjEzIDAtOS4yOSA0LjE1Mi05LjI5IDkuMjgxIDAgNS4xMzIgNC4xNiA5LjI4OSA5LjI5IDkuMjg5czkuMjgtNC4xNTcgOS4yOC05LjI4OWMwLTUuMTI4LTQuMTYtOS4yODEtOS4yOC05LjI4MXptMTEzLjQyIDQzLjg4Yy01LjEyIDAtOS4xMS00LjExNS05LjExLTkuMTEyczQuMDQtOS4xNTkgOS4xNi05LjE1OSA5LjExIDQuMTE0IDkuMTEgOS4xMDdjMCA0Ljk5Ny00LjA0IDkuMTY0LTkuMTYgOS4xNjR6bS4wNS0xNy4zNjVjLTQuNjcgMC04LjIgMy43MS04LjIgOC4yNTMgMCA0LjU0MSAzLjUxIDguMjAxIDguMTUgOC4yMDEgNC42NyAwIDguMi0zLjcwNyA4LjItOC4yNTMgMC00LjU0MS0zLjUxLTguMjAxLTguMTUtOC4yMDF6bTIuMDIgOS4xMzhsMi41OCAzLjYwOGgtMi4xOGwtMi4zMi0zLjMxaC0xLjk5djMuMzFoLTEuODJ2LTkuNTY0aDQuMjZjMi4yMyAwIDMuNjkgMS4xMzcgMy42OSAzLjA1MS4wMSAxLjU2OC0uOSAyLjUyNi0yLjIxIDIuOTA1em0tMS41NC00LjMxNWgtMi4zN3YzLjAyNWgyLjM3YzEuMTggMCAxLjg5LS41NzkgMS44OS0xLjUxNCAwLS45ODQtLjcxLTEuNTExLTEuODktMS41MTF6IiBmaWxsPSIjMWVkNzYwIi8+PC9zdmc+;" parent="1" vertex="1">
          <mxGeometry x="1000" y="1600" width="259.65" height="78" as="geometry" />
        </mxCell>
        <mxCell id="zf6_VQ0JbsXAk2qcLPLx-113" style="edgeStyle=orthogonalEdgeStyle;rounded=0;orthogonalLoop=1;jettySize=auto;html=1;exitX=1;exitY=0.5;exitDx=0;exitDy=0;entryX=0;entryY=0.5;entryDx=0;entryDy=0;entryPerimeter=0;" parent="1" source="zf6_VQ0JbsXAk2qcLPLx-112" edge="1">
          <mxGeometry relative="1" as="geometry">
            <mxPoint x="1480" y="1638.9999999999995" as="targetPoint" />
          </mxGeometry>
        </mxCell>
        <mxCell id="zf6_VQ0JbsXAk2qcLPLx-114" style="edgeStyle=orthogonalEdgeStyle;rounded=0;orthogonalLoop=1;jettySize=auto;html=1;exitX=1;exitY=0.5;exitDx=0;exitDy=0;exitPerimeter=0;entryX=0;entryY=0.5;entryDx=0;entryDy=0;entryPerimeter=0;" parent="1" target="zf6_VQ0JbsXAk2qcLPLx-97" edge="1">
          <mxGeometry relative="1" as="geometry">
            <mxPoint x="1558" y="1638.9999999999995" as="sourcePoint" />
          </mxGeometry>
        </mxCell>
        <mxCell id="zf6_VQ0JbsXAk2qcLPLx-115" style="edgeStyle=orthogonalEdgeStyle;rounded=0;orthogonalLoop=1;jettySize=auto;html=1;exitX=1;exitY=0.5;exitDx=0;exitDy=0;exitPerimeter=0;entryX=0;entryY=0.5;entryDx=0;entryDy=0;entryPerimeter=0;" parent="1" source="zf6_VQ0JbsXAk2qcLPLx-97" target="zf6_VQ0JbsXAk2qcLPLx-85" edge="1">
          <mxGeometry relative="1" as="geometry" />
        </mxCell>
        <mxCell id="zf6_VQ0JbsXAk2qcLPLx-116" style="edgeStyle=orthogonalEdgeStyle;rounded=0;orthogonalLoop=1;jettySize=auto;html=1;exitX=1;exitY=0.5;exitDx=0;exitDy=0;exitPerimeter=0;entryX=0;entryY=0.5;entryDx=0;entryDy=0;entryPerimeter=0;" parent="1" source="zf6_VQ0JbsXAk2qcLPLx-85" target="zf6_VQ0JbsXAk2qcLPLx-98" edge="1">
          <mxGeometry relative="1" as="geometry" />
        </mxCell>
        <mxCell id="zf6_VQ0JbsXAk2qcLPLx-117" style="edgeStyle=orthogonalEdgeStyle;rounded=0;orthogonalLoop=1;jettySize=auto;html=1;exitX=1;exitY=0.5;exitDx=0;exitDy=0;exitPerimeter=0;entryX=0;entryY=0.5;entryDx=0;entryDy=0;entryPerimeter=0;" parent="1" source="zf6_VQ0JbsXAk2qcLPLx-98" target="zf6_VQ0JbsXAk2qcLPLx-99" edge="1">
          <mxGeometry relative="1" as="geometry" />
        </mxCell>
        <mxCell id="zf6_VQ0JbsXAk2qcLPLx-125" value="&lt;b style=&quot;font-size: 16px;&quot;&gt;EXTRACTION&lt;/b&gt;" style="text;html=1;strokeColor=none;fillColor=none;align=center;verticalAlign=middle;whiteSpace=wrap;rounded=0;fontSize=16;" parent="1" vertex="1">
          <mxGeometry x="1645" y="1460" width="130" height="30" as="geometry" />
        </mxCell>
        <mxCell id="zf6_VQ0JbsXAk2qcLPLx-128" value="&lt;b&gt;TRANSFORMATION&lt;/b&gt;" style="text;html=1;strokeColor=none;fillColor=none;align=center;verticalAlign=middle;whiteSpace=wrap;rounded=0;fontSize=16;" parent="1" vertex="1">
          <mxGeometry x="2192.5" y="1460" width="175" height="30" as="geometry" />
        </mxCell>
        <mxCell id="zf6_VQ0JbsXAk2qcLPLx-130" value="&lt;b&gt;LOAD&lt;/b&gt;" style="text;html=1;strokeColor=none;fillColor=none;align=center;verticalAlign=middle;whiteSpace=wrap;rounded=0;fontSize=16;" parent="1" vertex="1">
          <mxGeometry x="2772.5" y="1460" width="175" height="30" as="geometry" />
        </mxCell>
        <mxCell id="zqxQnl2ZY21lzqqIOCPB-2" value="1" style="ellipse;whiteSpace=wrap;html=1;aspect=fixed;fontStyle=1" vertex="1" parent="1">
          <mxGeometry x="1335" y="1654" width="29" height="29" as="geometry" />
        </mxCell>
        <mxCell id="zqxQnl2ZY21lzqqIOCPB-3" value="2" style="ellipse;whiteSpace=wrap;html=1;aspect=fixed;fontStyle=1" vertex="1" parent="1">
          <mxGeometry x="1605.5" y="1654" width="29" height="29" as="geometry" />
        </mxCell>
        <mxCell id="zqxQnl2ZY21lzqqIOCPB-4" value="3" style="ellipse;whiteSpace=wrap;html=1;aspect=fixed;fontStyle=1" vertex="1" parent="1">
          <mxGeometry x="1805" y="1654" width="29" height="29" as="geometry" />
        </mxCell>
        <mxCell id="zqxQnl2ZY21lzqqIOCPB-5" value="4" style="ellipse;whiteSpace=wrap;html=1;aspect=fixed;fontStyle=1" vertex="1" parent="1">
          <mxGeometry x="2075.5" y="1654" width="29" height="29" as="geometry" />
        </mxCell>
        <mxCell id="zqxQnl2ZY21lzqqIOCPB-6" value="5" style="ellipse;whiteSpace=wrap;html=1;aspect=fixed;fontStyle=1" vertex="1" parent="1">
          <mxGeometry x="2285" y="1654" width="29" height="29" as="geometry" />
        </mxCell>
        <mxCell id="zqxQnl2ZY21lzqqIOCPB-7" value="6" style="ellipse;whiteSpace=wrap;html=1;aspect=fixed;fontStyle=1" vertex="1" parent="1">
          <mxGeometry x="2536" y="1654" width="29" height="29" as="geometry" />
        </mxCell>
        <mxCell id="zqxQnl2ZY21lzqqIOCPB-8" value="7" style="ellipse;whiteSpace=wrap;html=1;aspect=fixed;fontStyle=1" vertex="1" parent="1">
          <mxGeometry x="2750" y="1654" width="29" height="29" as="geometry" />
        </mxCell>
        <mxCell id="zqxQnl2ZY21lzqqIOCPB-11" value="8" style="ellipse;whiteSpace=wrap;html=1;aspect=fixed;fontStyle=1" vertex="1" parent="1">
          <mxGeometry x="2944" y="1654" width="29" height="29" as="geometry" />
        </mxCell>
        <mxCell id="zqxQnl2ZY21lzqqIOCPB-12" value="Amazon EventBridge" style="sketch=0;points=[[0,0,0],[0.25,0,0],[0.5,0,0],[0.75,0,0],[1,0,0],[0,1,0],[0.25,1,0],[0.5,1,0],[0.75,1,0],[1,1,0],[0,0.25,0],[0,0.5,0],[0,0.75,0],[1,0.25,0],[1,0.5,0],[1,0.75,0]];outlineConnect=0;fontColor=#232F3E;fillColor=#E7157B;strokeColor=#ffffff;dashed=0;verticalLabelPosition=bottom;verticalAlign=top;align=center;html=1;fontSize=12;fontStyle=0;aspect=fixed;shape=mxgraph.aws4.resourceIcon;resIcon=mxgraph.aws4.eventbridge;" vertex="1" parent="1">
          <mxGeometry x="1480" y="1600" width="78" height="78" as="geometry" />
        </mxCell>
      </root>
    </mxGraphModel>
  </diagram>
</mxfile>
